<svg width="1440" height="1024" viewBox="0 0 1440 1024" fill="none" xmlns="http://www.w3.org/2000/svg">
<rect width="1440" height="1024" fill="white"/>
<circle cx="570.001" cy="501" r="300" transform="rotate(-90 570.001 501)" fill="#E30A17"/>
<circle cx="570.001" cy="501" r="300" transform="rotate(-90 570.001 501)" stroke="black"/>
<circle cx="753" cy="618" r="150" fill="white"/>
<circle cx="753" cy="618" r="150" fill="white"/>
<circle cx="633" cy="651" r="150" fill="white"/>
<circle cx="633" cy="651" r="150" fill="white"/>
<circle cx="375" cy="618" r="150" fill="white"/>
<circle cx="375" cy="618" r="150" fill="white"/>
<circle cx="547" cy="768" r="150" fill="white"/>
<circle cx="547" cy="768" r="150" fill="white"/>
<circle cx="420" cy="501" r="150" fill="#E30A17"/>
<circle cx="720" cy="512" r="150" fill="white"/>
<g filter="url(#filter0_d)">
<path d="M416.869 578.328C417.445 578.328 418.021 578.328 418.597 578.328V579.768C415.909 580.152 412.885 580.344 409.525 580.344C406.261 580.344 402.181 579.624 397.285 578.184C392.485 576.744 388.117 574.056 384.181 570.12C376.117 562.056 371.221 551.592 369.493 538.728L360.709 474.648L330.757 542.328C328.069 548.184 326.437 553.08 325.861 557.016H324.421L287.125 475.944L280.789 547.512C280.597 549.144 281.077 550.584 282.229 551.832C283.477 553.08 284.821 553.704 286.261 553.704H288.565V555H260.629V553.56H262.933C265.525 553.56 267.781 552.792 269.701 551.256C271.717 549.624 272.965 547.512 273.445 544.92L282.517 466.296C274.069 449.688 263.941 441.384 252.133 441.384C251.077 441.384 249.973 441.432 248.821 441.528V440.088C251.413 439.416 253.525 439.08 255.157 439.08C256.789 439.08 258.565 439.176 260.485 439.368C262.405 439.464 264.661 439.896 267.253 440.664C269.845 441.432 272.293 442.584 274.597 444.12C276.901 445.56 278.917 447.096 280.645 448.728C282.373 450.264 284.005 451.992 285.541 453.912C288.133 457.368 290.197 460.68 291.733 463.848L326.437 539.016L365.173 452.184H366.469L379.861 537.432C381.877 550.872 386.197 561.048 392.821 567.96C399.541 574.872 407.557 578.328 416.869 578.328ZM402.996 553.56C405.492 553.56 407.604 552.696 409.332 550.968C411.156 549.144 412.116 546.984 412.212 544.488V463.848C412.212 461.544 411.3 459.624 409.476 458.088C407.652 456.456 405.492 455.64 402.996 455.64H401.268L401.124 454.2H443.316C446.292 454.2 449.508 453.912 452.964 453.336C456.516 452.76 459.012 452.184 460.452 451.608V469.752H459.012V467.16C459.012 464.856 458.196 462.888 456.564 461.256C455.028 459.624 453.156 458.76 450.948 458.664H421.572V503.16H445.908C447.828 503.064 449.46 502.344 450.804 501C452.148 499.656 452.82 497.976 452.82 495.96V493.944H454.26V516.696H452.82V514.536C452.82 512.616 452.148 510.984 450.804 509.64C449.556 508.296 447.972 507.576 446.052 507.48H421.572V550.536H442.164C449.268 550.536 454.692 548.952 458.436 545.784C462.18 542.616 465.3 537.912 467.796 531.672H469.236L460.884 555H401.124V553.56H402.996ZM512.492 458.664H503.276V544.488C503.276 546.984 504.14 549.144 505.868 550.968C507.692 552.696 509.9 553.56 512.492 553.56H514.22L514.364 555H482.828V553.56H484.7C487.196 553.56 489.308 552.696 491.036 550.968C492.86 549.24 493.82 547.128 493.916 544.632V464.712C493.82 462.216 492.86 460.104 491.036 458.376C489.308 456.552 487.196 455.64 484.7 455.64H482.828V454.2H521.708C530.444 454.2 537.308 456.648 542.3 461.544C547.292 466.344 549.788 472.632 549.788 480.408C549.788 488.088 547.388 494.76 542.588 500.424C537.884 505.992 532.124 508.776 525.308 508.776C526.748 509.448 528.428 510.792 530.348 512.808C532.364 514.728 534.14 516.744 535.676 518.856C543.932 530.664 549.308 537.96 551.804 540.744C554.3 543.432 556.076 545.304 557.132 546.36C558.188 547.32 559.34 548.28 560.588 549.24C561.836 550.2 563.084 550.968 564.332 551.544C567.116 552.888 570.092 553.56 573.26 553.56V555H565.34C561.212 555 557.372 554.28 553.82 552.84C550.268 551.304 547.58 549.768 545.756 548.232C544.028 546.6 542.492 545.064 541.148 543.624C539.9 542.088 536.348 537.096 530.492 528.648C524.636 520.2 521.228 515.4 520.268 514.248C519.308 513 518.3 511.8 517.244 510.648C514.172 507.384 511.1 505.752 508.028 505.752V504.312C508.796 504.408 509.804 504.456 511.052 504.456C512.3 504.456 513.836 504.408 515.66 504.312C527.564 504.024 535.052 499.032 538.124 489.336C538.7 487.416 538.988 485.64 538.988 484.008C538.988 482.28 538.988 481.176 538.988 480.696C538.796 474.264 537.116 469.08 533.948 465.144C530.78 461.208 526.508 459.096 521.132 458.808C518.828 458.712 515.948 458.664 512.492 458.664ZM625.508 557.016C610.148 556.92 597.668 552.072 588.068 542.472C578.564 532.872 573.812 520.248 573.812 504.6C573.812 488.952 578.564 476.328 588.068 466.728C597.668 457.032 610.148 452.184 625.508 452.184C638.756 452.184 650.42 455.448 660.5 461.976L663.38 482.28H662.084C659.972 474.024 655.7 467.688 649.268 463.272C642.932 458.76 635.012 456.504 625.508 456.504C613.316 456.504 603.428 460.92 595.844 469.752C588.356 478.584 584.612 490.2 584.612 504.6C584.612 519 588.356 530.616 595.844 539.448C603.428 548.184 613.316 552.6 625.508 552.696C631.748 552.696 637.652 551.592 643.22 549.384C648.884 547.176 653.828 544.104 658.052 540.168V514.68C658.052 512.568 657.38 510.984 656.036 509.928C654.788 508.776 653.012 508.2 650.708 508.2H648.404V506.76H676.628V508.2H674.468C672.068 508.2 670.244 508.776 668.996 509.928C667.748 510.984 667.172 512.568 667.268 514.68V538.44C664.772 541.704 661.796 544.632 658.34 547.224C654.884 549.816 650.228 552.12 644.372 554.136C638.612 556.056 632.324 557.016 625.508 557.016ZM686.918 553.56C689.414 553.56 691.526 552.696 693.254 550.968C695.078 549.144 696.038 546.984 696.134 544.488V463.848C696.134 461.544 695.222 459.624 693.398 458.088C691.574 456.456 689.414 455.64 686.918 455.64H685.19L685.046 454.2H727.238C730.214 454.2 733.43 453.912 736.886 453.336C740.438 452.76 742.934 452.184 744.374 451.608V469.752H742.934V467.16C742.934 464.856 742.118 462.888 740.486 461.256C738.95 459.624 737.078 458.76 734.87 458.664H705.494V503.16H729.83C731.75 503.064 733.382 502.344 734.726 501C736.07 499.656 736.742 497.976 736.742 495.96V493.944H738.182V516.696H736.742V514.536C736.742 512.616 736.07 510.984 734.726 509.64C733.478 508.296 731.894 507.576 729.974 507.48H705.494V550.536H726.086C733.19 550.536 738.614 548.952 742.358 545.784C746.102 542.616 749.222 537.912 751.718 531.672H753.158L744.806 555H685.046V553.56H686.918ZM871.548 455.64C869.148 455.64 867.084 456.504 865.356 458.232C863.628 459.864 862.716 461.88 862.62 464.28V538.584C862.62 544.152 862.956 549.432 863.628 554.424L863.916 557.016H862.62L784.14 473.208V544.92C784.14 547.32 785.004 549.384 786.732 551.112C788.46 552.744 790.524 553.56 792.924 553.56H795.66V555H765.996V553.56H768.732C771.132 553.56 773.196 552.744 774.924 551.112C776.652 549.384 777.516 547.272 777.516 544.776V470.04C777.516 464.184 777.18 458.952 776.508 454.344L776.22 452.04H777.66L856.14 535.848V464.424C856.044 461.928 855.132 459.864 853.404 458.232C851.676 456.504 849.612 455.64 847.212 455.64H844.476V454.2H874.14V455.64H871.548ZM937.186 545.784V477.672C937.186 475.56 936.37 473.784 934.738 472.344C933.202 470.808 931.378 470.04 929.266 470.04H926.242V468.6H957.346V470.04H954.322C952.21 470.04 950.386 470.808 948.85 472.344C947.314 473.88 946.546 475.704 946.546 477.816V545.784C946.546 548.76 947.89 551.016 950.578 552.552C951.73 553.224 953.026 553.56 954.466 553.56H957.49V555H926.242L926.386 553.56H929.41C931.522 553.56 933.346 552.792 934.882 551.256C936.418 549.72 937.186 547.896 937.186 545.784ZM984.526 479.112C992.11 470.76 1002.05 466.584 1014.33 466.584C1026.62 466.584 1036.51 470.76 1044 479.112C1051.58 487.368 1055.37 498.264 1055.37 511.8C1055.37 525.336 1051.58 536.28 1044 544.632C1036.51 552.888 1026.62 557.016 1014.33 557.016C1002.05 557.016 992.11 552.888 984.526 544.632C977.038 536.28 973.294 525.336 973.294 511.8C973.294 498.264 977.038 487.368 984.526 479.112ZM1036.8 482.136C1031.13 474.648 1023.65 470.904 1014.33 470.904C1005.02 470.904 997.534 474.648 991.87 482.136C986.206 489.624 983.374 499.512 983.374 511.8C983.374 524.088 986.206 533.976 991.87 541.464C997.534 548.952 1005.02 552.696 1014.33 552.696C1020.48 552.696 1025.9 551.016 1030.61 547.656C1035.31 544.2 1038.91 539.4 1041.41 533.256C1044 527.016 1045.29 519.864 1045.29 511.8C1045.29 499.512 1042.46 489.624 1036.8 482.136ZM1077.03 476.52C1074.25 476.52 1072.04 477.24 1070.41 478.68C1068.77 480.024 1067.38 482.184 1066.23 485.16H1064.79L1068.82 468.888H1126.42L1110.87 510.36C1107.99 518.136 1104.44 528.216 1100.21 540.6C1096.09 552.888 1093.21 562.488 1091.57 569.4C1091.57 569.4 1088.21 569.4 1081.49 569.4C1092.34 542.136 1100.17 522.264 1104.97 509.784L1117.64 476.52H1077.03ZM1152.62 545.784V477.672C1152.62 475.56 1151.81 473.784 1150.18 472.344C1148.64 470.808 1146.82 470.04 1144.7 470.04H1141.68V468.6H1172.78V470.04H1169.76C1167.65 470.04 1165.82 470.808 1164.29 472.344C1162.75 473.88 1161.98 475.704 1161.98 477.816V545.784C1161.98 548.76 1163.33 551.016 1166.02 552.552C1167.17 553.224 1168.46 553.56 1169.9 553.56H1172.93V555H1141.68L1141.82 553.56H1144.85C1146.96 553.56 1148.78 552.792 1150.32 551.256C1151.86 549.72 1152.62 547.896 1152.62 545.784Z" fill="#333333"/>
</g>
<defs>
<filter id="filter0_d" x="232.821" y="423.08" width="964.107" height="181.264" filterUnits="userSpaceOnUse" color-interpolation-filters="sRGB">
<feFlood flood-opacity="0" result="BackgroundImageFix"/>
<feColorMatrix in="SourceAlpha" type="matrix" values="0 0 0 0 0 0 0 0 0 0 0 0 0 0 0 0 0 0 127 0"/>
<feOffset dx="4" dy="4"/>
<feGaussianBlur stdDeviation="10"/>
<feColorMatrix type="matrix" values="0 0 0 0 0 0 0 0 0 0 0 0 0 0 0 0 0 0 0.25 0"/>
<feBlend mode="normal" in2="BackgroundImageFix" result="effect1_dropShadow"/>
<feBlend mode="normal" in="SourceGraphic" in2="effect1_dropShadow" result="shape"/>
</filter>
</defs>
</svg>
